<?xml version="1.0" encoding="utf-8"?>
<svg id="master-artboard" viewBox="0 0 1400 980" version="1.1" xmlns="http://www.w3.org/2000/svg" x="0px" y="0px" style="enable-background:new 0 0 336 235.2;" width="1400px" height="980px"><g transform="matrix(1.0976624657600176, 0, 0, 1.0976624657600176, 206.05190566678115, 159.38406866288273)"><g transform="matrix(1, 0, 0, 1, 5.684341886080802e-14, 0)"><g transform="matrix(1, 0, 0, 1, 5.684341886080802e-14, 0)">
	<path class="st5" d="M248.6,410.5l140.9-72l4.1,8l-140.9,72c0,0-5.8,19.9-25.3,29.9c0,0,10.9-16.7,10-24.8c-0.1-0.7-0.3-1.4-0.6-2&#10;&#9;&#9;l-10,0.1C226.8,421.6,236.4,412.4,248.6,410.5z" style="fill: rgb(0, 141, 143); opacity: 1; stroke: rgb(0, 141, 143); stroke-width: 1; fill-opacity: 1;"/>
	<path class="st3" d="M609.2,176.4c-5.2,14.2,0,29.2,0,29.2s13.6-8.1,18.7-22.4c5.2-14.2,0-29.2,0-29.2S614.4,162.2,609.2,176.4z" style="fill: rgb(0, 141, 143); opacity: 1; stroke: rgb(0, 141, 143); stroke-width: 1; fill-opacity: 1;"/>
	<path class="st2" d="M607.3,176.4c5.2,14.2,0,29.2,0,29.2s-13.6-8.1-18.7-22.4c-5.2-14.2,0-29.2,0-29.2S602.2,162.2,607.3,176.4z" style="fill: rgb(0, 141, 143); opacity: 1; stroke: rgb(0, 141, 143); stroke-width: 1; fill-opacity: 1;"/>
	<path class="st2" d="M254.1,159.8h14l-0.1-0.2h53.5c39.6,0,76.3,20.6,97,54.3c0,0,15.5,26.3,29.6,50.7c23.9-8,52.5-26.6,81.1-66.4&#10;&#9;&#9;c3.4-4.8,6.3-9.9,9-15.1c4.6-8.7,14-14.6,24.7-14c13.1,0.7,23.7,11.3,24.6,24.4c1,15.2-11.1,27.9-26.1,27.9&#10;&#9;&#9;c-4.8,0-9.3-1.3-13.2-3.6l0,0c0,0-54.7,145.6-168.4,145.6c0,0-25.7,2.2-50.6-8.7c-2.4-1-2-4.5,0.5-5c12.3-2.6,36.3-10.5,57.5-34.5&#10;&#9;&#9;h-44.9c-6.8,0-13-5.6-13.3-12.4c-0.3-7.4,5.6-13.5,12.9-13.5h-27.5c-7,0-13-5.4-13.3-12.3c-0.4-7.4,5.6-13.6,12.9-13.6h-19.2&#10;&#9;&#9;c-7,0-13-5.4-13.3-12.3c-0.4-7.4,5.6-13.6,12.9-13.6h-21.9c-7,0-13-5.4-13.3-12.3c-0.4-7.4,5.6-13.6,12.9-13.6h-8.7&#10;&#9;&#9;c-7,0-13-5.4-13.3-12.3c-0.4-7.4,5.6-13.6,12.9-13.6h-9.1c-7.2,0-12.9-5.8-12.9-12.9l0,0C241.2,165.6,247,159.8,254.1,159.8z" style="fill: rgb(0, 141, 143); opacity: 1; stroke: rgb(0, 141, 143); stroke-width: 1; fill-opacity: 1;"/>
	<path d="M 643.9000244140625 208.60000610351562 L 574.7000122070312 217.8000030517578 L 569.9000244140625 205.60000610351562 Z" class="st5" style="fill: rgb(0, 141, 143); opacity: 1; stroke: rgb(0, 141, 143); stroke-width: 1; fill-opacity: 1;"/>
	<path class="st2" d="M671.6,300.4L671.6,300.4c-23.2-24.3-42-52.3-55.5-83l-6.4-14.6l-6.5,14.7c-13.5,30.6-32.3,58.7-55.4,82.9l0,0&#10;&#9;&#9;c-1.7,1.7-1.3,4.6,0.8,5.8c42.3,25.5,80.1,25.5,122.3,0C672.9,305,673.2,302.1,671.6,300.4z" style="fill: rgb(0, 141, 143); opacity: 1; stroke: rgb(0, 141, 143); stroke-width: 1; fill-opacity: 1;"/>
	<path class="st6" d="M587.5,193.6l56.5,15l-72.4,1.2l-1.6-4.2C569.9,205.6,583.5,204.8,587.5,193.6z" style="fill: rgb(0, 141, 143); opacity: 1; stroke: rgb(0, 141, 143); stroke-width: 1; fill-opacity: 1;"/>
	<path d="M 593.099988 201.600006 A 2.8 1.1 0 0 1 590.299988 202.700006 A 2.8 1.1 0 0 1 587.499988 201.600006 A 2.8 1.1 0 0 1 590.299988 200.500006 A 2.8 1.1 0 0 1 593.099988 201.600006 Z" class="st7" style="fill: rgb(0, 141, 143); opacity: 1; stroke: rgb(0, 141, 143); stroke-width: 1; fill-opacity: 1;"/>
	<path class="st8" d="M559.7,190.8c0,3.1,2.5,5.6,5.6,5.6c3.1,0,5.6-2.5,5.6-5.6h1.6c0,4-3.2,7.2-7.2,7.2c-4,0-7.2-3.2-7.2-7.2&#10;&#9;&#9;H559.7z" style="fill: rgb(0, 141, 143); opacity: 1; stroke: rgb(0, 141, 143); stroke-width: 1; fill-opacity: 1;"/>
</g></g></g><path d="M 88.01494598388672 592.5938720703125" style="fill: rgb(0, 141, 143); fill-opacity: 1; stroke: rgb(0, 141, 143); stroke-opacity: 1; stroke-width: 1; paint-order: stroke;"/></svg>